<svg id="icon" xmlns="http://www.w3.org/2000/svg" viewBox="0 0 14.6427 31.3653">
    <path fill-rule="evenodd" d="M4.391 31.364v-4.906h4.765v4.906zM0 4.822l.469-.936C1.745 1.294 3.915 0 6.98 0h.771c.202 0 .573.056 1.113.178C12.228.886 14.14 3 14.599 6.531c0 .117.014.303.042.552v.519c0 2.329-1.24 4.473-3.725 6.44l-4.612 3.665c-.171.231-.26.444-.26.647 0 .053.015.11.043.168.145.458.462.728.946.81h.086c.109 0 .277-.053.508-.168l.302-.173.124-.043.634-.469 3.074 3.373c-1.141 1.416-2.658 2.127-4.561 2.127-1.963 0-3.531-.768-4.693-2.304-.822-1.109-1.231-2.233-1.231-3.364 0-2.221 1.209-4.141 3.623-5.76l.512-.344.893-.687.124-.124 1.156-.938c1.423-1.167 2.133-2.28 2.133-3.332 0-.655-.27-1.22-.81-1.7-.54-.459-1.138-.687-1.788-.687-1.086 0-1.911.527-2.479 1.583l-.207.593z"/>
</svg>
