<svg id="icon" xmlns="http://www.w3.org/2000/svg" viewBox="0 0 65.312 40.9">
    <path fill-rule="evenodd" d="M28.454 11.827c3.25-4.431 6.278-7.515 9.075-9.243C40.328.864 43.537 0 47.16 0c5.073 0 9.369 1.911 12.88 5.739 3.51 3.828 5.27 9.028 5.27 15.59 0 6.231-1.537 11.05-4.605 14.458-3.067 3.408-6.816 5.112-11.247 5.112-3.376 0-6.333-.983-8.877-2.94-2.544-1.958-4.867-5.224-6.975-9.79-3.773 4.986-6.872 8.18-9.281 9.591-2.417 1.403-5.216 2.108-8.403 2.108-4.208 0-7.917-1.791-11.12-5.373C1.601 30.912 0 26.005 0 19.776 0 13.76 1.418 9.131 4.248 5.889c2.829-3.241 6.23-4.858 10.185-4.858 2.972 0 5.596.88 7.871 2.632 2.274 1.75 4.328 4.477 6.15 8.164zm-2.362 3.613c-1.538-1.173-3.266-2.044-5.168-2.615-1.91-.57-4.003-.856-6.278-.856-4.002 0-7.061.871-9.185 2.615-1.633 1.3-2.449 3.108-2.449 5.405 0 2.086.744 3.86 2.234 5.319 1.491 1.467 3.338 2.196 5.548 2.196 2.244 0 4.574-.816 6.983-2.449 2.411-1.634 5.184-4.835 8.315-9.615zm9.67 9.195c.872.958 1.664 1.641 2.378 2.045 1.086.617 2.67 1.172 4.748 1.664 2.076.5 4.248.745 6.514.745 2.918 0 5.359-.373 7.332-1.109 1.974-.737 3.392-1.792 4.264-3.163.864-1.372 1.3-2.782 1.3-4.225 0-2.251-.832-4.137-2.488-5.683-1.665-1.537-3.94-2.306-6.825-2.306-6.016-.048-11.761 3.97-17.223 12.032z"/>
</svg>
