<svg id="icon" xmlns="http://www.w3.org/2000/svg" viewBox="0 0 30.928 39.7667">
    <g fill-rule="evenodd">
        <path d="M20.55.892c9.29 1.7707 7.89 10.0587 8 18.3827.05 2.864 3.2 7.9867.82 9.9013-2.38 1.9147-9.82 2.6574-15.1 1.588-5.33-1.08-12.05-4.7533-13.38-7.4293-1.34-2.676 4.26-6.18 5.38-8.628C9.7 7.224 11.25-.8786 20.55.892zM15.83 33.376c2.06.2707 4.1.2547 6.08-.0173-.01.008 0 .016 0 .0253-.06 3.1974-2.53 5.7494-5.52 5.7-2.99-.0493-5.37-2.6826-5.32-5.88.01-.3226.04-.6373.09-.9426 1.19.4186 2.43.744 3.71.968.32.0546.64.104.96.1466z"/>
    </g>
</svg>
