<svg id="icon" xmlns="http://www.w3.org/2000/svg" viewBox="0 0 53.1613 54.868">
    <path fill-rule="evenodd" d="M18.316 3.922c1.939-1.846 6.108-2.532 8.536-1.41 2.429 1.124 3.38 7.151 6.039 8.152 2.657 1.002 7.344-2.902 9.91-2.144 2.567.759 5.247 4.026 5.49 6.692.241 2.667-4.5 6.502-4.038 9.306.463 2.802 6.186 4.912 6.812 7.514.628 2.603-.86 6.559-3.048 8.102-2.186 1.541-7.878-.65-10.074 1.153-2.195 1.803-1.159 7.815-3.099 9.659-1.939 1.845-6.107 2.533-8.536 1.409-2.429-1.124-3.38-7.151-6.039-8.152-2.657-1.001-7.344 2.903-9.91 2.144-2.567-.757-5.247-4.025-5.49-6.692-.241-2.667 4.5-6.501 4.038-9.305-.463-2.803-6.186-4.912-6.812-7.515-.628-2.603.86-6.557 3.048-8.1 2.186-1.543 7.878.648 10.074-1.155 2.195-1.802 1.159-7.814 3.099-9.658zM35.872 25.9c-.848-5.133-5.693-8.609-10.825-7.761-5.132.847-8.606 5.695-7.759 10.828.848 5.133 5.693 8.609 10.825 7.763 5.132-.848 8.606-5.695 7.759-10.83z"/>
</svg>
