<svg id="icon" xmlns="http://www.w3.org/2000/svg" viewBox="0 0 43.568 43.1147">
    <path fill="#40c894" fill-rule="evenodd" d="M1.3853 22.003C-2.756 18.679 13.1947 5.388 17.3347 2.064c2.312-1.855 6.5813-1.855 8.8933 0 4.141 3.324 20.093 16.62 15.953 19.943-.992.794-3.609 1.4-7.072 1.813v13.709c0 2.716-2.202 4.918-4.917 4.918h-4.047v-10.86c0-.614-.496-1.111-1.1103-1.111H17.768c-.6133 0-1.1107.497-1.1107 1.111v10.86H12.56c-2.716 0-4.9173-2.202-4.9173-4.918V23.715c-3.0587-.41-5.3467-.98-6.2574-1.712z"/>
</svg>
