<svg id="icon" xmlns="http://www.w3.org/2000/svg" viewBox="0 0 44.9813 44.98">
    <path fill="none" stroke-width="3.33333" stroke-linejoin="round" stroke-linecap="round" d="M1.667 5.373c0-2.047 1.66-3.707 3.707-3.707h34.233c2.047 0 3.707 1.66 3.707 3.707v34.232c0 2.047-1.66 3.707-3.707 3.707H5.374c-2.047 0-3.707-1.66-3.707-3.707z"/>
    <path stroke="none" fill-rule="evenodd" d="M5.859 19.165c.387-8.475 7.459-1.101 14.387 9.248 2.557 3.819 8.974-3.56 13.472-4.339s6.97 14.299 5.48 14.728c-2.636.762-27.854.607-32.922 0-1.746-.208-.804-11.162-.417-19.637zM31.399 7.162c3.027 0 5.48 2.455 5.48 5.482 0 3.026-2.453 5.481-5.48 5.481-3.027 0-5.48-2.455-5.48-5.481 0-3.027 2.453-5.482 5.48-5.482z"/>
</svg>
