<svg id="icon" xmlns="http://www.w3.org/2000/svg" viewBox="0 0 36.6853 43.1227">
    <g fill-rule="evenodd">
        <path d="M21.97 28.704c.04.008.08.2133.12.2133h4.48v7.6987c0 1.2133-.95 2.368-2.13 2.58l-2.47.448zM5.29 3.728v-.0014c.3-.224.65-.3826 1.02-.448L24.44 0c1.18-.212 2.13.5986 2.13 1.812v16.6346h-4.48c-.04 0-.08.004-.12.0134V7.6493c0-1.0827-.87-2.064-1.94-2.1893z"/>
        <path d="M0 7.7213c0-1.0347.83-1.776 1.85-1.656L17.61 7.916c1.02.12 1.84 1.0573 1.84 2.092v31.24c0 1.0346-.82 1.7773-1.84 1.6573l-15.76-1.852C.83 40.9333 0 39.9973 0 38.9626zM28.73 17.0093c.3-.5867 1.51-.3813 2.06 0 1.26.86 4 3.4373 5.47 5.1573.56.6694.56 1.7574 0 2.428-1.46 1.7214-4.21 4.3014-5.46 5.1614-.56.3826-1.76.588-2.06 0-.35-.6707 0-2.6854 0-4.028h-6.48c-.69 0-1.25-.6587-1.25-1.472v-1.7467c0-.8133.56-1.4733 1.25-1.4733h6.47c0-1.3414-.34-3.3547 0-4.0267z"/>
    </g>
</svg>
