<svg id="icon" xmlns="http://www.w3.org/2000/svg" viewBox="0 0 46.5133 49.5613">
    <g stoke="none" fill-rule="evenodd">
        <path d="M2.11 31.403c-.73.03-1.87-2.284-1.4-2.846 3.86-4.616 21.63-19.609 24.6-24.85l11.5 23.32c-5.97-.838-28.68 4.121-34.7 4.376zM10 35.48c-.29-1.412.61-2.797 2.03-3.092l11.6-2.425c1.41-.295 2.8.612 3.1 2.024.29 1.412-.62 2.797-2.03 3.092l-11.6 2.425c-1.42.295-2.8-.612-3.1-2.024zM20.08 48.852c-1.87.392-3.71-.809-4.1-2.681l-.93-4.455c-.39-1.872.81-3.707 2.68-4.099l2.72-.566c1.87-.391 3.7.809 4.1 2.681l.93 4.456c.39 1.871-.81 3.707-2.69 4.097zM31.53 10.215c-.64-.507-.75-1.442-.25-2.086L35.4 2.82c.5-.643 1.42-.753 2.06-.245v-.002c.64.508.75 1.443.25 2.087l-4.13 5.309c-.49.643-1.42.754-2.05.246zM33.71 14.251c-.32-.755.03-1.632.78-1.96l8.19-3.567c.75-.327 1.62.02 1.94.775v-.002c.32.755-.03 1.634-.78 1.96l-8.18 3.567c-.76.328-1.63-.019-1.95-.775zM36.28 18.668c.06-.819.78-1.429 1.6-1.363l6.6.534c.81.065 1.43.784 1.36 1.602v-.001c-.06.819-.78 1.429-1.6 1.364l-6.6-.533c-.82-.067-1.43-.784-1.36-1.604z"/>
    </g>
</svg>
