<svg id="icon" xmlns="http://www.w3.org/2000/svg" viewBox="0 0 292.835 179.98">
    <g fill-rule="evenodd">
        <path d="M57.7043 52.52c9.724-.001 18.888 2.858 26.928 7.904 10.582-15.012 26.481-24.557 44.257-24.557 4.708 0 9.284.669 13.665 1.935C152.0383 15.382 171.5783 0 194.1443 0c28.976 0 52.965 25.367 57.078 58.424 24.038 8.275 41.611 34.615 41.611 65.832 0 22.962-9.511 43.291-24.107 55.721h-65.918v-24.44c8.874-.01 23.844 3.23 28.612-.01 4.769-3.245 3.465-13.888-.004-19.443-6.736-10.786-29.044-30.058-40.416-45.286-4.434-5.94-11.618-5.94-16.05.005-11.36 15.244-33.657 34.532-40.388 45.325-3.465 5.558-4.762 16.202.006 19.439 4.766 3.24 19.733-.01 28.598-.01v24.42H28.224C11.3226 168.027 0 146.108 0 121.054 0 83.204 25.836 52.52 57.7043 52.52z"/>
        <path d="M152.3843 144.688c-3.262-1.861-2.084-8.373-.003-11.572 4.14-6.362 17.855-18.409 24.841-26.608 2.727-3.196 7.146-3.196 9.872-.002 6.995 8.192 20.715 20.228 24.859 26.588 2.083 3.197 3.263 9.706.003 11.569-3.375 1.929-14.794.003-20.252.005v27.949c0 3.88-2.683 7.02-5.988 7.02h-7.094c-3.312 0-5.994-3.14-5.994-7.02V144.68c-5.452.003-16.87 1.935-20.244.008z"/>
    </g>
</svg>
