<svg id="icon" xmlns="http://www.w3.org/2000/svg" viewBox="0 0 115.788 117.735">
    <g fill-rule="evenodd">
        <path d="M21.898 68.534c-.958.35-1.642 1.27-1.642 2.352v29.301c0 1.383 1.121 2.504 2.504 2.504h68.734c1.383 0 2.504-1.121 2.504-2.504V70.886c0-1.383-1.121-2.504-2.504-2.504H22.76c-.303 0-.594.053-.862.152zm55.496-14.358H22.178c-1.52 0-2.753-1.233-2.753-2.753V12.53c0-1.52 1.233-2.754 2.753-2.754h55.216c1.52 0 2.754 1.234 2.754 2.754v38.893c0 1.52-1.234 2.753-2.754 2.753zM.666 9.018C.666 4.406 4.405.667 9.017.667c29.9 0 65.619-.109 83.612.284 11.647.255 21.591 12.473 22 22.2.725 17.241.437 55.665.437 85.565 0 4.612-3.738 8.351-8.35 8.351H9.017c-4.612 0-8.351-3.739-8.351-8.351z"/><path d="M27.878 76.423c0-.979.794-1.772 1.772-1.772h55.356c.979 0 1.772.793 1.772 1.772s-.793 1.772-1.772 1.772H29.65c-.978 0-1.772-.793-1.772-1.772zM27.878 85.699c0-.979.794-1.772 1.772-1.772h55.356c.979 0 1.772.793 1.772 1.772s-.793 1.772-1.772 1.772H29.65c-.978 0-1.772-.793-1.772-1.772zM27.878 94.975c0-.979.794-1.772 1.772-1.772h55.356c.979 0 1.772.793 1.772 1.772s-.793 1.772-1.772 1.772H29.65c-.978 0-1.772-.793-1.772-1.772zM55.825 18.004c0-1.716 1.392-3.108 3.108-3.108h12.511c1.716 0 3.108 1.392 3.108 3.108V45.75c0 1.716-1.392 3.108-3.108 3.108H58.933c-1.716 0-3.108-1.392-3.108-3.108z"/>
    </g>
</svg>
