<svg id="icon" xmlns="http://www.w3.org/2000/svg" viewBox="0 0 38.8107 35.5973">
    <g fill="silver" fill-rule="evenodd">
        <path d="M37.47 16.959c0-2.243-1.82-4.061-4.06-4.061H22.14l.63-6.651c.23-2.479-1.59-4.679-4.07-4.913-2.48-.235-4.67 1.585-4.91 4.065l-2.22 23.509c-.24 2.48 1.58 4.68 4.06 4.915v-.001c.21.018.41.024.61.016.28.057.56.088.85.088h12.58c2.24 0 4.06-1.819 4.06-4.062 0-.936-.32-1.796-.85-2.481 1.83-.392 3.21-2.021 3.21-3.971 0-1.05-.4-2.008-1.06-2.729 1.44-.627 2.44-2.059 2.44-3.724zM5.39 34.263c2.48.235 4.68-1.585 4.92-4.065l1.2-12.722c.23-2.48-1.59-4.68-4.07-4.914-2.47-.234-4.67 1.585-4.91 4.065L1.33 29.35c-.24 2.478 1.58 4.678 4.06 4.913z"/>
    </g>
</svg>
