<svg id="icon" xmlns="http://www.w3.org/2000/svg" viewBox="0 0 30.028 18.936">
    <g fill="#dcdcdc" fill-rule="evenodd">
        <path d="M15.01 3.82c-3.32 0-6.02 1.976-6.02 5.648 0 3.672 2.7 5.648 6.02 5.648 3.33 0 6.02-1.976 6.02-5.648 0-3.672-2.69-5.648-6.02-5.648zm0-1.82c7.19 0 13.02 3.343 13.02 7.468 0 4.124-5.83 7.467-13.02 7.467C7.83 16.935 2 13.592 2 9.468 2 5.343 7.83 2 15.01 2z"/>
        <path d="M15.57 7.443c-.39.168-.67.56-.67 1.017 0 .609.49 1.104 1.09 1.104.61 0 1.09-.495 1.09-1.104 0-.609-.48-1.104-1.09-1.104-.15 0-.29.031-.42.087zm-.56-1.688c2.03 0 3.67 1.668 3.67 3.725 0 2.057-1.64 3.725-3.67 3.725-2.02 0-3.67-1.668-3.67-3.725 0-2.057 1.65-3.725 3.67-3.725z"/>
    </g>
</svg>
